<?xml version="1.0" encoding="iso-8859-1"?>
<!-- Uploaded to: SVG Repo, www.svgrepo.com, Generator: SVG Repo Mixer Tools -->
<svg fill="#000000" version="1.1" id="Layer_1" xmlns="http://www.w3.org/2000/svg" xmlns:xlink="http://www.w3.org/1999/xlink" 
	 viewBox="0 0 512 512" xml:space="preserve">
<g>
	<g>
		<g>
			<path d="M501.551,135.837h-31.347c-5.771,0-10.449,4.678-10.449,10.449v20.898H52.245v-20.898
				c0-5.771-4.678-10.449-10.449-10.449H10.449C4.678,135.837,0,140.515,0,146.286V512h20.898V156.735h10.449v20.898v188.082V512
				h20.898v-88.816h10.449c41.853,0,62.201,4.933,83.742,10.155c21.787,5.281,44.315,10.743,88.666,10.743
				s66.879-5.462,88.666-10.743c21.542-5.222,41.889-10.155,83.742-10.155h52.245V512h20.898V365.714V177.633v-20.898h10.449V512
				H512V146.286C512,140.515,507.322,135.837,501.551,135.837z M370.939,188.082h31.347v41.796h-31.347V188.082z M370.939,250.775
				h31.347v41.796h-31.347V250.775z M370.939,313.469h31.347v41.796h-31.347V313.469z M318.694,188.082h31.347v41.796h-31.347
				V188.082z M318.694,250.775h31.347v41.796h-31.347V250.775z M318.694,313.469h31.347v41.796h-31.347V313.469z M266.449,188.082
				h31.347v41.796h-31.347V188.082z M266.449,250.775h31.347v41.796h-31.347V250.775z M266.449,313.469h31.347v41.796h-31.347
				V313.469z M214.204,188.082h31.347v41.796h-31.347V188.082z M214.204,250.775h31.347v41.796h-31.347V250.775z M214.204,313.469
				h31.347v41.796h-31.347V313.469z M161.959,188.082h31.347v41.796h-31.347V188.082z M161.959,250.775h31.347v41.796h-31.347
				V250.775z M161.959,313.469h31.347v41.796h-31.347V313.469z M109.714,188.082h31.347v41.796h-31.347V188.082z M109.714,250.775
				h31.347v41.796h-31.347V250.775z M109.714,313.469h31.347v41.796h-31.347V313.469z M52.245,188.082h36.571v41.796H52.245V188.082
				z M52.245,250.775h36.571v41.796H52.245V250.775z M52.245,313.469h36.571v41.796H52.245V313.469z M459.755,402.286H407.51
				c-44.351,0-66.879,5.462-88.666,10.743c-21.542,5.222-41.889,10.155-83.742,10.155s-62.201-4.933-83.742-10.155
				c-21.787-5.281-44.315-10.743-88.666-10.743H52.245v-26.122h407.51V402.286z M459.755,355.265h-36.571v-41.796h36.571V355.265z
				 M459.755,292.571h-36.571v-41.796h36.571V292.571z M459.755,229.878h-36.571v-41.796h36.571V229.878z"/>
			<rect x="73.143" y="475.429" width="20.898" height="20.898"/>
			<rect x="114.939" y="454.531" width="20.898" height="20.898"/>
			<rect x="167.184" y="475.429" width="20.898" height="20.898"/>
			<rect x="219.429" y="464.98" width="20.898" height="20.898"/>
			<rect x="271.673" y="475.429" width="20.898" height="20.898"/>
			<rect x="323.918" y="454.531" width="20.898" height="20.898"/>
			<rect x="376.163" y="475.429" width="20.898" height="20.898"/>
			<rect x="417.959" y="444.082" width="20.898" height="20.898"/>
			<path d="M331.15,92.929l-14.621,14.621l14.778,14.778l14.621-14.621c4.416,2.786,9.323,4.855,14.562,6.048v22.082h20.898v-22.083
				c5.239-1.194,10.146-3.262,14.562-6.048l14.621,14.621l14.778-14.778l-14.621-14.621c2.785-4.416,4.854-9.323,6.048-14.562
				h22.082V57.469h-22.083c-1.194-5.239-3.262-10.146-6.048-14.562l14.621-14.621L410.57,13.508L395.948,28.13
				c-4.416-2.786-9.323-4.855-14.562-6.048V0h-20.898v22.083c-5.239,1.194-10.146,3.262-14.562,6.048L331.306,13.51l-14.778,14.778
				l14.621,14.621c-2.785,4.416-4.854,9.323-6.048,14.562H303.02v20.898h22.083C326.297,83.606,328.365,88.513,331.15,92.929z
				 M370.939,41.796c14.404,0,26.122,11.719,26.122,26.122s-11.719,26.122-26.122,26.122s-26.122-11.719-26.122-26.122
				S356.535,41.796,370.939,41.796z"/>
			<path d="M88.816,57.469c5.762,0,10.449,4.687,10.449,10.449h20.898c0-5.762,4.687-10.449,10.449-10.449
				c5.762,0,10.449,4.687,10.449,10.449h20.898c0-17.285-14.062-31.347-31.347-31.347c-8.023,0-15.349,3.032-20.898,8.008
				c-5.55-4.976-12.875-8.008-20.898-8.008c-17.285,0-31.347,14.062-31.347,31.347h20.898
				C78.367,62.157,83.055,57.469,88.816,57.469z"/>
			<path d="M120.163,120.163h20.898c0-5.762,4.687-10.449,10.449-10.449c5.762,0,10.449,4.687,10.449,10.449h20.898
				c0-5.762,4.687-10.449,10.449-10.449c5.762,0,10.449,4.687,10.449,10.449h20.898c0-17.285-14.062-31.347-31.347-31.347
				c-8.023,0-15.349,3.032-20.898,8.008c-5.55-4.976-12.875-8.008-20.898-8.008C134.226,88.816,120.163,102.879,120.163,120.163z"/>
		</g>
	</g>
</g>
</svg>